ffmpeg version 2.8.15-0ubuntu0.16.04.1 Copyright (c) 2000-2018 the FFmpeg developers
  built with gcc 5.4.0 (Ubuntu 5.4.0-6ubuntu1~16.04.10) 20160609
  configuration: --prefix=/usr --extra-version=0ubuntu0.16.04.1 --build-suffix=-ffmpeg --toolchain=hardened --libdir=/usr/lib/x86_64-linux-gnu --incdir=/usr/include/x86_64-linux-gnu --cc=cc --cxx=g++ --enable-gpl --enable-shared --disable-stripping --disable-decoder=libopenjpeg --disable-decoder=libschroedinger --enable-avresample --enable-avisynth --enable-gnutls --enable-ladspa --enable-libass --enable-libbluray --enable-libbs2b --enable-libcaca --enable-libcdio --enable-libflite --enable-libfontconfig --enable-libfreetype --enable-libfribidi --enable-libgme --enable-libgsm --enable-libmodplug --enable-libmp3lame --enable-libopenjpeg --enable-libopus --enable-libpulse --enable-librtmp --enable-libschroedinger --enable-libshine --enable-libsnappy --enable-libsoxr --enable-libspeex --enable-libssh --enable-libtheora --enable-libtwolame --enable-libvorbis --enable-libvpx --enable-libwavpack --enable-libwebp --enable-libx265 --enable-libxvid --enable-libzvbi --enable-openal --enable-opengl --enable-x11grab --enable-libdc1394 --enable-libiec61883 --enable-libzmq --enable-frei0r --enable-libx264 --enable-libopencv
  libavutil      54. 31.100 / 54. 31.100
  libavcodec     56. 60.100 / 56. 60.100
  libavformat    56. 40.101 / 56. 40.101
  libavdevice    56.  4.100 / 56.  4.100
  libavfilter     5. 40.101 /  5. 40.101
  libavresample   2.  1.  0 /  2.  1.  0
  libswscale      3.  1.101 /  3.  1.101
  libswresample   1.  2.101 /  1.  2.101
  libpostproc    53.  3.100 / 53.  3.100
Input #0, image2pipe, from 'pipe:':
  Duration: N/A, bitrate: N/A
    Stream #0:0: Video: ppm, rgb24, 512x512, 12 fps, 12 tbr, 12 tbn, 12 tbc
[libx264 @ 0x146fc00] using cpu capabilities: MMX2 SSE2Fast SSSE3 SSE4.2 AVX
[libx264 @ 0x146fc00] profile High, level 2.2
[libx264 @ 0x146fc00] 264 - core 148 r2643 5c65704 - H.264/MPEG-4 AVC codec - Copyleft 2003-2015 - http://www.videolan.org/x264.html - options: cabac=1 ref=3 deblock=1:0:0 analyse=0x3:0x113 me=hex subme=7 psy=1 psy_rd=1.00:0.00 mixed_ref=1 me_range=16 chroma_me=1 trellis=1 8x8dct=1 cqm=0 deadzone=21,11 fast_pskip=1 chroma_qp_offset=-2 threads=12 lookahead_threads=2 sliced_threads=0 nr=0 decimate=1 interlaced=0 bluray_compat=0 constrained_intra=0 bframes=3 b_pyramid=2 b_adapt=1 b_bias=0 direct=1 weightb=1 open_gop=0 weightp=2 keyint=250 keyint_min=12 scenecut=40 intra_refresh=0 rc_lookahead=40 rc=abr mbtree=1 bitrate=400 ratetol=1.0 qcomp=0.60 qpmin=0 qpmax=69 qpstep=4 ip_ratio=1.40 aq=1:1.00
Output #0, mp4, to './mission_records/cfd5cc26-0934-4f59-b1b8-c3992df2bc44/video.mp4':
  Metadata:
    encoder         : Lavf56.40.101
    Stream #0:0: Video: h264 (libx264) ([33][0][0][0] / 0x0021), yuv420p, 512x512, q=-1--1, 400 kb/s, 12 fps, 12288 tbn, 12 tbc
    Metadata:
      encoder         : Lavc56.60.100 libx264
Stream mapping:
  Stream #0:0 -> #0:0 (ppm (native) -> h264 (libx264))
frame=   14 fps=0.0 q=0.0 size=       0kB time=00:00:00.00 bitrate=N/A    frame=   20 fps= 18 q=0.0 size=       0kB time=00:00:00.00 bitrate=N/A    frame=   25 fps= 15 q=0.0 size=       0kB time=00:00:00.00 bitrate=N/A    frame=   31 fps= 14 q=0.0 size=       0kB time=00:00:00.00 bitrate=N/A    frame=   36 fps= 13 q=0.0 size=       0kB time=00:00:00.00 bitrate=N/A    frame=   42 fps= 13 q=0.0 size=       0kB time=00:00:00.00 bitrate=N/A    frame=   48 fps= 12 q=0.0 size=       0kB time=00:00:00.00 bitrate=N/A    frame=   54 fps= 12 q=0.0 size=       0kB time=00:00:00.00 bitrate=N/A    frame=   60 fps= 12 q=39.0 size=      61kB time=00:00:00.16 bitrate=3012.0kbits/s    frame=   66 fps= 12 q=31.0 size=     109kB time=00:00:00.66 bitrate=1343.0kbits/s    frame=   72 fps= 12 q=41.0 size=     148kB time=00:00:01.16 bitrate=1042.4kbits/s    frame=   78 fps= 12 q=39.0 size=     162kB time=00:00:01.66 bitrate= 795.1kbits/s    frame=   84 fps= 12 q=38.0 size=     173kB time=00:00:02.16 bitrate= 653.4kbits/s    frame=   90 fps= 12 q=36.0 size=     180kB time=00:00:02.66 bitrate= 552.5kbits/s    frame=   96 fps= 12 q=36.0 size=     197kB time=00:00:03.16 bitrate= 509.1kbits/s    frame=  102 fps= 12 q=36.0 size=     216kB time=00:00:03.66 bitrate= 481.5kbits/s    frame=  108 fps= 11 q=34.0 size=     224kB time=00:00:04.16 bitrate= 440.9kbits/s    frame=  114 fps= 11 q=34.0 size=     242kB time=00:00:04.66 bitrate= 424.9kbits/s    frame=  120 fps= 11 q=33.0 size=     251kB time=00:00:05.16 bitrate= 398.3kbits/s    frame=  126 fps= 11 q=33.0 size=     274kB time=00:00:05.66 bitrate= 395.8kbits/s    frame=  132 fps= 11 q=32.0 size=     290kB time=00:00:06.16 bitrate= 385.8kbits/s    frame=  138 fps= 11 q=31.0 size=     309kB time=00:00:06.66 bitrate= 379.6kbits/s    frame=  144 fps= 11 q=31.0 size=     329kB time=00:00:07.16 bitrate= 375.9kbits/s    frame=  150 fps= 11 q=32.0 size=     355kB time=00:00:07.66 bitrate= 379.2kbits/s    frame=  156 fps= 11 q=32.0 size=     378kB time=00:00:08.16 bitrate= 378.7kbits/s    av_interleaved_write_frame(): Immediate exit requested
frame=  159 fps= 11 q=36.0 Lsize=     611kB time=00:00:10.91 bitrate= 458.5kbits/s    
video:612kB audio:0kB subtitle:0kB other streams:0kB global headers:0kB muxing overhead: unknown
[libx264 @ 0x146fc00] frame I:15    Avg QP:27.75  size: 10319
[libx264 @ 0x146fc00] frame P:144   Avg QP:31.35  size:  4547
[libx264 @ 0x146fc00] mb I  I16..4:  9.8% 49.6% 40.6%
[libx264 @ 0x146fc00] mb P  I16..4: 11.5% 51.3% 10.4%  P16..4: 12.0%  6.0%  2.6%  0.0%  0.0%    skip: 6.2%
[libx264 @ 0x146fc00] final ratefactor: 32.23
[libx264 @ 0x146fc00] 8x8 transform intra:67.6% inter:64.8%
[libx264 @ 0x146fc00] coded y,uvDC,uvAC intra: 30.3% 28.9% 8.4% inter: 24.4% 9.7% 0.9%
[libx264 @ 0x146fc00] i16 v,h,dc,p: 42% 39% 13%  5%
[libx264 @ 0x146fc00] i8 v,h,dc,ddl,ddr,vr,hd,vl,hu: 36% 17% 25%  3%  3%  3%  5%  3%  4%
[libx264 @ 0x146fc00] i4 v,h,dc,ddl,ddr,vr,hd,vl,hu: 38% 24% 17%  3%  3%  4%  5%  3%  3%
[libx264 @ 0x146fc00] i8c dc,h,v,p: 72% 13% 13%  1%
[libx264 @ 0x146fc00] Weighted P-Frames: Y:13.2% UV:10.4%
[libx264 @ 0x146fc00] ref P L0: 72.8% 11.9% 11.2%  3.8%  0.2%
[libx264 @ 0x146fc00] kb/s:488.78
Exiting normally, received signal 2.
